<svg version="1.1" id="Layer_1" xmlns="http://www.w3.org/2000/svg" xmlns:xlink="http://www.w3.org/1999/xlink" x="0px" y="0px"
	 width="100%" viewBox="0 0 800 800" enable-background="new 0 0 800 800" xml:space="preserve">
<path fill="#000000" opacity="1.000000" stroke="none" 
	d="
M478.999878,405.363556 
	C467.002686,405.360352 455.496826,405.096405 444.012390,405.477295 
	C439.185272,405.637421 436.829681,403.908020 435.169617,399.573822 
	C427.882141,380.547119 418.166351,362.697266 408.154633,345.007629 
	C407.370361,343.621918 406.889130,341.890167 404.701080,341.020081 
	C399.012207,347.531860 393.228729,354.130310 387.468964,360.749390 
	C375.553223,374.442871 363.626740,388.127136 351.763733,401.866211 
	C349.668823,404.292358 347.382263,405.574432 344.021790,405.414642 
	C338.596588,405.156677 333.150146,405.345306 327.761749,405.345306 
	C327.337891,402.402954 329.229706,401.492401 330.364349,400.199280 
	C351.236450,376.411926 372.094452,352.611908 393.070740,328.916595 
	C396.234924,325.342224 396.123383,322.666382 391.702423,319.631409 
	C384.393921,327.853149 377.096771,336.007904 369.859131,344.215149 
	C353.445923,362.827148 336.782349,381.229919 320.818268,400.220215 
	C315.249115,406.845032 308.888214,405.054352 302.304657,405.235687 
	C301.845428,402.621704 303.621796,401.629608 304.772095,400.324524 
	C330.762329,370.837128 356.720001,341.320831 382.816742,311.927979 
	C385.904114,308.450653 385.141632,306.235809 381.933716,303.918121 
	C379.713074,304.155426 378.660736,305.789124 377.488312,307.113800 
	C350.338196,337.790192 323.189453,368.467957 296.118713,399.214386 
	C290.463623,405.637299 285.449585,407.169159 276.568634,404.325684 
	C278.411469,400.684174 281.472961,398.085327 284.034363,395.173859 
	C313.405396,361.788147 342.821655,328.441772 372.368469,295.211761 
	C375.708313,291.455566 373.772217,289.438202 370.601135,286.620972 
	C365.313538,290.897156 361.412109,296.511627 356.949341,301.506256 
	C339.083618,321.501068 321.443451,341.697388 303.702240,361.803619 
	C292.022858,375.039917 280.227936,388.175812 268.686554,401.531067 
	C266.262299,404.336273 263.809235,405.609039 260.129913,405.419189 
	C255.035233,405.156372 249.916840,405.353149 245.124954,405.353149 
	C244.207367,403.245422 245.263138,402.490143 246.020660,401.660889 
	C283.652069,360.464905 321.261017,319.248291 358.988617,278.140594 
	C361.837677,275.036285 362.391632,272.977448 359.457642,269.462555 
	C341.208099,247.599808 323.190826,225.543106 305.101898,203.546295 
	C287.226685,181.809326 269.355469,160.069077 251.502121,138.314133 
	C251.121414,137.850235 250.978775,137.190994 250.234467,135.524353 
	C263.409607,137.175156 275.795898,132.741135 288.013947,141.622940 
	C316.188324,162.104095 343.595093,183.539581 370.966553,205.036911 
	C396.629578,225.192429 422.113678,245.578354 447.122467,266.546936 
	C459.275299,276.736450 469.475372,288.922638 480.929901,299.825623 
	C510.434875,327.909973 536.455139,359.136292 562.591919,390.257355 
	C566.388062,394.777435 569.956360,399.488983 574.624512,405.363312 
	C541.930664,405.363312 510.715271,405.363312 478.999878,405.363556 
z"/>
<path fill="#000000" opacity="1.000000" stroke="none" 
	d="
M453.764038,188.769318 
	C473.784332,169.662247 492.505951,149.825928 509.796295,128.653564 
	C510.946228,127.245415 512.157776,125.741539 514.230286,125.736023 
	C523.025452,125.712608 531.820740,125.726082 540.500610,125.726082 
	C541.581604,128.070206 540.167480,129.559143 539.531067,131.179520 
	C530.106628,155.174561 516.705811,177.031525 502.932678,198.656250 
	C489.883850,219.143845 476.833923,239.635849 462.674683,259.397552 
	C459.911407,263.254181 458.252594,263.355011 454.729034,260.070892 
	C442.789825,248.942963 429.613098,239.272171 416.906677,229.047913 
	C415.497070,227.913651 413.840637,227.030838 412.881500,224.428116 
	C426.363800,212.817535 440.326996,201.349335 453.764038,188.769318 
z"/>
<path fill="#000000" opacity="1.000000" stroke="none" 
	d="
M329.913574,468.362122 
	C330.140106,491.288177 330.179291,513.767395 330.296112,536.246277 
	C330.311737,539.243408 329.082397,540.571167 326.119659,540.326294 
	C325.954407,540.312683 325.786621,540.324951 325.620270,540.331299 
	C311.388672,540.875061 311.458191,540.841003 305.154572,528.005676 
	C299.527069,516.546997 293.723083,505.175018 287.410553,493.856812 
	C287.994354,499.357544 288.891266,504.847046 289.089844,510.361633 
	C289.401215,519.010620 289.170074,527.677795 289.318970,536.334717 
	C289.371918,539.412598 288.040985,540.419495 285.126465,540.360229 
	C268.577820,540.023743 271.899048,542.688232 271.717621,527.651855 
	C271.496613,509.335266 271.820770,491.011810 271.558167,472.696350 
	C271.487518,467.770569 273.303192,467.036835 277.831879,466.458160 
	C287.459106,465.228088 292.481689,468.965302 296.274963,477.732483 
	C301.612183,490.068115 308.711792,501.625763 314.134735,514.114380 
	C312.252991,501.740356 312.598297,489.312622 312.680634,476.899231 
	C312.758881,465.100464 311.187164,466.815552 323.131744,466.726288 
	C325.356354,466.709656 327.840912,465.912445 329.913574,468.362122 
z"/>
<path fill="#000000" opacity="1.000000" stroke="none" 
	d="
M532.581299,498.498108 
	C525.154724,499.314026 523.110657,501.482056 523.090149,508.209839 
	C523.062744,517.194458 522.979492,526.180420 523.098450,535.163391 
	C523.147217,538.849548 522.079285,540.436829 517.977966,540.439270 
	C504.660767,540.447205 504.661346,540.613892 504.662628,527.463867 
	C504.663910,514.652283 504.793060,501.838684 504.591003,489.030304 
	C504.524933,484.840912 506.070007,483.227356 510.116302,483.697113 
	C511.101624,483.811493 512.112061,483.750702 513.109070,483.716156 
	C516.978333,483.582031 520.876099,483.381500 520.477112,488.766724 
	C522.411926,489.391571 523.121948,488.202820 524.021179,487.596069 
	C540.553955,476.439880 555.054077,483.371643 556.125305,503.337128 
	C556.712769,514.286865 556.198608,525.293884 556.261841,536.274658 
	C556.278992,539.256104 554.997253,540.413330 552.041809,540.356323 
	C534.698547,540.021912 538.089539,542.812317 537.729248,526.895447 
	C537.574890,520.077026 537.714844,513.252319 537.662048,506.430939 
	C537.634827,502.918579 536.887146,499.761749 532.581299,498.498108 
z"/>
<path fill="#000000" opacity="1.000000" stroke="none" 
	d="
M475.630554,536.345093 
	C470.199432,538.161865 465.748901,541.837219 459.593079,541.424622 
	C451.902435,540.909119 446.000031,536.958374 443.876129,529.859741 
	C441.494141,521.898499 444.063507,514.458862 450.598572,510.160736 
	C457.330017,505.733490 465.168762,504.887207 473.070648,503.281158 
	C472.851379,498.583374 469.715607,497.540619 466.076599,497.422302 
	C461.795990,497.283112 457.960968,499.121338 454.235260,500.922760 
	C452.121307,501.944885 450.812897,501.739136 449.767914,499.699219 
	C444.324127,489.072266 442.794800,490.340973 454.294037,485.451843 
	C460.376343,482.865814 466.822052,482.122375 473.367310,482.764648 
	C485.019135,483.908020 491.723602,491.904144 492.192200,505.759521 
	C492.529480,515.732361 492.207825,525.726257 492.280365,535.709961 
	C492.302948,538.820679 491.106537,540.380615 487.880646,540.249939 
	C485.721283,540.162476 483.538239,540.079224 481.395752,540.293335 
	C478.389862,540.593750 476.757874,539.191406 475.630554,536.345093 
M460.657745,523.320923 
	C463.708038,527.591858 469.613312,527.855164 472.593597,523.772644 
	C474.308167,521.423889 474.377930,518.519714 473.023285,516.287964 
	C471.761566,514.209290 469.372101,515.853088 467.555237,516.315002 
	C464.175995,517.174072 461.481384,518.932739 460.657745,523.320923 
z"/>
<path fill="#000000" opacity="1.000000" stroke="none" 
	d="
M348.737823,512.304321 
	C339.196381,502.168274 342.407135,488.727509 355.138885,484.146149 
	C365.590240,480.385376 378.676239,483.176453 384.707306,490.629730 
	C383.877899,491.943115 383.085266,493.395508 382.108612,494.711304 
	C377.411407,501.039337 377.737396,501.624512 371.119690,497.849304 
	C369.271606,496.795074 367.136261,496.138000 364.885071,496.383026 
	C362.967285,496.591766 361.132324,497.143738 360.666870,499.237762 
	C360.224091,501.229889 361.801117,502.324066 363.315552,503.001373 
	C367.108978,504.697906 371.084839,506.004303 374.814667,507.821930 
	C387.784454,514.142334 389.110626,529.603760 377.448822,537.550598 
	C368.611694,543.572571 349.608002,542.187317 342.077728,535.021423 
	C340.640808,533.654053 340.223236,532.332520 341.540222,530.694519 
	C342.061371,530.046204 342.565186,529.380493 343.031067,528.691711 
	C348.379303,520.783691 347.844788,521.954285 354.598450,525.608521 
	C357.250000,527.043213 360.137054,527.943054 363.230957,527.601318 
	C365.313232,527.371338 367.261871,526.716980 367.629181,524.300781 
	C367.967865,522.073120 366.321899,521.042358 364.627106,520.206360 
	C359.426849,517.641357 353.610931,516.335632 348.737823,512.304321 
z"/>
<path fill="#000000" opacity="1.000000" stroke="none" 
	d="
M392.335632,521.236450 
	C390.030609,509.308197 391.197968,498.671356 400.185181,489.983490 
	C408.420654,482.022339 423.821289,480.101990 433.673798,485.847107 
	C436.453400,487.467987 437.755249,489.140656 435.249237,492.059448 
	C434.063446,493.440521 433.193756,495.088257 432.116852,496.568665 
	C430.431458,498.885590 428.799072,500.125549 425.477478,498.609039 
	C419.972015,496.095490 414.812622,498.079224 412.021149,503.489807 
	C409.001007,509.343567 409.322906,515.476746 412.364838,521.207520 
	C414.671631,525.553345 419.674072,527.242126 424.366791,525.746399 
	C426.407135,525.096069 428.335419,524.094177 430.504547,523.171204 
	C433.667297,525.466003 435.009338,529.136536 436.930267,532.367615 
	C438.175293,534.461914 436.925507,535.847168 435.240784,536.894409 
	C421.028259,545.729431 397.989410,542.280701 392.335632,521.236450 
z"/>
</svg>